<?xml version="1.0" encoding="UTF-8"?>
<!DOCTYPE svg PUBLIC "-//W3C//DTD SVG 1.1//EN" "http://www.w3.org/Graphics/SVG/1.1/DTD/svg11.dtd">
<svg xmlns="http://www.w3.org/2000/svg" version="1.1" width="225px" height="225px" style="shape-rendering:geometricPrecision; text-rendering:geometricPrecision; image-rendering:optimizeQuality; fill-rule:evenodd; clip-rule:evenodd" xmlns:xlink="http://www.w3.org/1999/xlink">
<g><path style="opacity:1" fill="#fdfdfd" d="M -0.5,-0.5 C 74.5,-0.5 149.5,-0.5 224.5,-0.5C 224.5,74.5 224.5,149.5 224.5,224.5C 149.5,224.5 74.5,224.5 -0.5,224.5C -0.5,149.5 -0.5,74.5 -0.5,-0.5 Z"/></g>
<g><path style="opacity:1" fill="#080808" d="M 42.5,25.5 C 51.8089,24.2862 60.3089,26.2862 68,31.5C 95.407,26.8472 122.907,26.3472 150.5,30C 168.585,32.5144 185.252,38.681 200.5,48.5C 203.155,101.366 184.822,145.533 145.5,181C 136.655,187.928 126.989,193.594 116.5,198C 114.833,198.667 113.167,198.667 111.5,198C 89.1201,188.283 70.9534,173.45 57,153.5C 34.6015,120.637 23.2682,84.3035 23,44.5C 26.7735,35.2247 33.2735,28.8914 42.5,25.5 Z"/></g>
<g><path style="opacity:1" fill="#fafafa" d="M 62.5,67.5 C 56.4334,71.3504 49.7667,72.5171 42.5,71C 31.3191,65.4816 27.4858,56.6482 31,44.5C 38.0841,32.3628 47.9174,29.5295 60.5,36C 71.5354,46.0145 72.2021,56.5145 62.5,67.5 Z"/></g>
<g><path style="opacity:1" fill="#fbfbfb" d="M 79.5,66.5 C 77.9739,64.87 75.9739,64.0367 73.5,64C 75.5103,60.46 76.5103,56.6267 76.5,52.5C 76.1347,47.3402 75.1347,42.3402 73.5,37.5C 98.7983,33.7191 124.132,33.5524 149.5,37C 165.499,39.5527 180.332,45.0527 194,53.5C 195.941,75.1877 192.275,95.8544 183,115.5C 174.385,100.274 161.552,94.441 144.5,98C 155.441,93.3887 155.108,90.222 143.5,88.5C 139.892,88.8817 136.558,89.7151 133.5,91C 136.708,88.3153 140.374,86.482 144.5,85.5C 139.654,78.1297 133.654,72.1297 126.5,67.5C 125.904,68.7161 125.737,70.0494 126,71.5C 116.825,67.9987 107.325,66.4987 97.5,67C 101.377,67.2565 105.043,68.2565 108.5,70C 105.945,71.4445 103.279,72.6112 100.5,73.5C 93.5914,70.7691 86.5914,68.4358 79.5,66.5 Z"/></g>
<g><path style="opacity:1" fill="#e4e4e4" d="M 79.5,66.5 C 81.0544,67.8946 80.721,68.5613 78.5,68.5C 76.8927,68.363 75.5594,67.6964 74.5,66.5C 76.0948,65.5661 77.7615,65.5661 79.5,66.5 Z"/></g>
<g><path style="opacity:1" fill="#d6d6d6" d="M 62.5,67.5 C 63.3635,66.537 64.0302,66.537 64.5,67.5C 64.9641,71.4945 64.4641,75.4945 63,79.5C 61.3879,75.5215 61.2212,71.5215 62.5,67.5 Z"/></g>
<g><path style="opacity:1" fill="#e3e3e3" d="M 67.5,67.5 C 77.4478,67.984 77.7812,69.3173 68.5,71.5C 69.6113,72.6113 70.278,73.9446 70.5,75.5C 69.2892,77.4839 67.9559,79.4839 66.5,81.5C 64.9668,76.5783 65.3001,71.9117 67.5,67.5 Z"/></g>
<g><path style="opacity:1" fill="#f3f3f3" d="M 109.5,71.5 C 113.846,71.3343 118.179,71.501 122.5,72C 125.359,74.5525 127.026,77.7192 127.5,81.5C 121.158,81.6662 114.825,81.4995 108.5,81C 107.128,79.7581 106.128,78.2581 105.5,76.5C 106.857,74.8144 108.19,73.1477 109.5,71.5 Z"/></g>
<g><path style="opacity:1" fill="#6c6c6c" d="M 99.5,75.5 C 98.5084,75.3284 97.8417,75.6618 97.5,76.5C 96.1529,75.8288 94.9862,75.8288 94,76.5C 93.2506,75.365 93.4173,74.365 94.5,73.5C 96.3361,74.0276 98.0028,74.6942 99.5,75.5 Z"/></g>
<g><path style="opacity:1" fill="#fbfbfb" d="M 33.5,75.5 C 41.8752,79.837 50.5419,80.5037 59.5,77.5C 58.822,83.7197 61.4887,88.2197 67.5,91C 71.8405,91.0932 76.1739,91.0932 80.5,91C 80.5481,100.425 84.8815,107.092 93.5,111C 94.8333,111.667 96.1667,111.667 97.5,111C 97.1667,110.667 96.8333,110.333 96.5,110C 100.977,107.515 104.811,104.348 108,100.5C 116.54,101.851 124.373,105.018 131.5,110C 134.555,119.54 140.222,121.706 148.5,116.5C 155.156,121.919 162.823,124.753 171.5,125C 174.29,127.21 175.123,130.044 174,133.5C 166.236,148.351 156.07,161.351 143.5,172.5C 142.925,165.686 140.425,159.686 136,154.5C 114.88,132.66 89.0466,120.16 58.5,117C 47.6183,114.661 40.785,108.161 38,97.5C 36.3054,90.1935 34.8054,82.8602 33.5,75.5 Z"/></g>
<g><path style="opacity:1" fill="#cbcbcb" d="M 99.5,75.5 C 102.097,75.5332 103.097,76.5332 102.5,78.5C 100.664,77.9724 98.9972,77.3058 97.5,76.5C 97.8417,75.6618 98.5084,75.3284 99.5,75.5 Z"/></g>
<g><path style="opacity:1" fill="#d9d9d9" d="M 128.5,76.5 C 131.655,76.9842 133.988,78.6509 135.5,81.5C 131.023,83.0378 128.689,81.3711 128.5,76.5 Z"/></g>
<g><path style="opacity:1" fill="#e6e6e6" d="M 107.5,87.5 C 108.709,90.7206 110.376,93.7206 112.5,96.5C 110.994,97.7472 109.494,97.7472 108,96.5C 106.375,86.5514 100.542,82.3847 90.5,84C 85.0549,86.8367 79.2216,88.6701 73,89.5C 69.1534,88.8658 67.6534,86.8658 68.5,83.5C 70.0697,85.3788 71.7363,85.7122 73.5,84.5C 76.0379,82.6776 76.0379,80.6776 73.5,78.5C 73.8333,78.1667 74.1667,77.8333 74.5,77.5C 75.2807,78.7366 76.2807,79.7366 77.5,80.5C 78.451,79.6744 79.451,79.5078 80.5,80C 79.1667,81 79.1667,82 80.5,83C 82.1341,83.4935 83.8008,83.6602 85.5,83.5C 85.5,81.8333 85.5,80.1667 85.5,78.5C 87.908,77.9387 90.2413,77.4387 92.5,77C 97.5291,80.5097 102.529,84.0097 107.5,87.5 Z"/></g>
<g><path style="opacity:1" fill="#b5b5b5" d="M 73.5,84.5 C 71.0245,83.9072 69.5245,82.5739 69,80.5C 70.5069,79.4652 72.0069,79.6319 73.5,81C 74.1712,81.9862 74.1712,83.1529 73.5,84.5 Z"/></g>
<g><path style="opacity:1" fill="#e0e0e0" d="M 110.5,83.5 C 117.046,82.2076 123.713,82.3743 130.5,84C 124.885,84.193 119.718,85.693 115,88.5C 113.483,86.7605 111.983,85.0938 110.5,83.5 Z"/></g>
<g><path style="opacity:1" fill="#d8d8d8" d="M 107.5,87.5 C 107.369,86.7611 107.536,86.0944 108,85.5C 109.635,86.7256 111.135,88.059 112.5,89.5C 112,89.8333 111.5,90.1667 111,90.5C 109.826,89.4558 108.659,88.4558 107.5,87.5 Z"/></g>
<g><path style="opacity:1" fill="#dcdcdc" d="M 97.5,89.5 C 98.3764,89.3691 99.0431,89.7025 99.5,90.5C 98.36,94.6607 96.36,95.3274 93.5,92.5C 94.9014,91.4793 96.2347,90.4793 97.5,89.5 Z"/></g>
<g><path style="opacity:1" fill="#d9d9d9" d="M 101.5,90.5 C 103.975,91.6874 104.975,93.6874 104.5,96.5C 102.396,96.7989 100.396,96.4656 98.5,95.5C 99.7629,93.9713 100.763,92.3046 101.5,90.5 Z"/></g>
<g><path style="opacity:1" fill="#e8e8e8" d="M 90.5,95.5 C 92.3464,95.2222 93.6798,95.8888 94.5,97.5C 91.0193,103.021 89.686,102.355 90.5,95.5 Z"/></g>
<g><path style="opacity:1" fill="#e9e9e9" d="M 131.5,93.5 C 135.177,93.3379 138.511,94.3379 141.5,96.5C 140.833,97.8333 139.833,98.8333 138.5,99.5C 136.167,98.3333 133.833,97.1667 131.5,96C 130.402,95.2303 130.402,94.397 131.5,93.5 Z"/></g>
<g><path style="opacity:1" fill="#dedede" d="M 98.5,98.5 C 100.5,98.5 102.5,98.5 104.5,98.5C 102.169,106.204 100.169,106.204 98.5,98.5 Z"/></g>
<g><path style="opacity:1" fill="#d3d3d3" d="M 127.5,97.5 C 128.376,97.3691 129.043,97.7025 129.5,98.5C 128.5,100.167 127.167,101.5 125.5,102.5C 124.417,101.635 124.251,100.635 125,99.5C 125.995,98.9341 126.828,98.2674 127.5,97.5 Z"/></g>
<g><path style="opacity:1" fill="#f0f0f0" d="M 149.5,98.5 C 162.722,99.1146 171.722,105.615 176.5,118C 176.167,118.5 175.833,119 175.5,119.5C 169.981,117.881 164.314,117.048 158.5,117C 156,116.625 153.667,115.792 151.5,114.5C 151.412,110.62 151.246,106.62 151,102.5C 148.988,101.434 148.488,100.1 149.5,98.5 Z"/></g>
<g><path style="opacity:1" fill="#e1e1e1" d="M 95.5,100.5 C 97.2132,101.635 97.8799,103.302 97.5,105.5C 91.8621,105.556 91.1954,103.889 95.5,100.5 Z"/></g>
<g><path style="opacity:1" fill="#e6e6e6" d="M 133.5,100.5 C 134.552,100.351 135.552,100.517 136.5,101C 135.32,102.896 133.82,104.396 132,105.5C 131.5,105.167 131,104.833 130.5,104.5C 131.524,103.148 132.524,101.815 133.5,100.5 Z"/></g>
<g><path style="opacity:1" fill="#e8e8e8" d="M 148.5,105.5 C 150.048,105.821 150.715,106.821 150.5,108.5C 146.36,109.044 145.693,108.044 148.5,105.5 Z"/></g>
<g><path style="opacity:1" fill="#c4c4c4" d="M 145.5,104.5 C 147.657,105.053 147.49,106.053 145,107.5C 144.53,106.423 144.697,105.423 145.5,104.5 Z"/></g>
<g><path style="opacity:1" fill="#c1c1c1" d="M 142.5,108.5 C 143.158,109.398 143.824,110.398 144.5,111.5C 145.842,109.995 147.508,109.328 149.5,109.5C 149.579,110.93 149.246,112.264 148.5,113.5C 147.726,114.711 146.893,114.711 146,113.5C 145.517,114.448 145.351,115.448 145.5,116.5C 144.5,116.5 143.5,116.5 142.5,116.5C 141.768,113.734 141.768,111.068 142.5,108.5 Z"/></g>
<g><path style="opacity:1" fill="#fcfcfc" d="M 55.5,129.5 C 81.4421,129.315 105.109,136.482 126.5,151C 130,154.5 133.5,158 137,161.5C 140.259,165.894 140.925,170.561 139,175.5C 131.082,182.874 121.915,187.707 111.5,190C 85.8754,177.375 66.5421,158.375 53.5,133C 53.9783,131.697 54.645,130.531 55.5,129.5 Z"/></g>
</svg>
